# xmcd
#
# Track frame offsets:
#	150
#	15511
#	24748
#	39996
#	50364
#	60209
#	74766
#	89164
#	99120
#	113330
#	128197
#	142468
#	157282
#	170967
#	186114
#	199700
#	214468
#	227018
#	239910
#	250990
#
# Disc length: 3497 seconds
#
# Revision: 0
# Processed by: cddbd v1.4PL0 Copyright (c) Steve Scherf et al.
# Submitted via: dBpowerAMP V4.0
#
DISCID=2e0da714
DTITLE=Peggy Lee - The Very Best Of Peggy Lee
DYEAR=1900
DGENRE=Ballad
TTITLE0=All I need is you
TTITLE1=Let's do it
TTITLE2=Not a care in the world
TTITLE3=These fooloish things
TTITLE4=Full moon
TTITLE5=Why don't you do right
TTITLE6=That 's the way it goes
TTITLE7=The lady is a tramp
TTITLE8=My olf flame
TTITLE9=Not mine
TTITLE10=Somebody else is taking my place
TTITLE11=How long has this been going on
TTITLE12=Winter Weather
TTITLE13=How deep is the ocean
TTITLE14=I threw a kiss in the ocean
TTITLE15=I got it bad and that sin't good
TTITLE16=Shady lady bird
TTITLE17=Elmer's tune
TTITLE18=Up a lazy river
TTITLE19=That did it, Marry
EXTD=Sami Osman
EXTT0=
EXTT1=
EXTT2=
EXTT3=
EXTT4=
EXTT5=
EXTT6=
EXTT7=
EXTT8=
EXTT9=
EXTT10=
EXTT11=
EXTT12=
EXTT13=
EXTT14=
EXTT15=
EXTT16=
EXTT17=
EXTT18=
EXTT19=
PLAYORDER=
